<svg version="1.1"
	 id="Слой_1" image-rendering="optimizeQuality" shape-rendering="geometricPrecision" text-rendering="geometricPrecision"
	 xmlns="http://www.w3.org/2000/svg" xmlns:xlink="http://www.w3.org/1999/xlink" x="0px" y="0px" viewBox="0 0 67.4 70.8"
	 style="enable-background:new 0 0 67.4 70.8;" xml:space="preserve">
<style type="text/css">
	.st0{fill-rule:evenodd;clip-rule:evenodd;fill:#4E4E4E;}
</style>
<path class="st0" d="M49.7,5.8c3.7-3.7,9.6-3.7,13.3,0c3.7,3.7,3.7,9.7,0,13.4l-16,16.3L63,51.7c3.6,3.7,3.6,9.6-0.1,13.3
	c-3.7,3.7-9.6,3.7-13.2,0L33.7,48.8L17.7,65c-3.7,3.7-9.6,3.7-13.3,0c-3.7-3.7-3.7-9.7,0-13.4l16-16.3L4.4,19.1
	C0.8,15.4,0.8,9.5,4.5,5.8c3.7-3.7,9.6-3.7,13.2,0L33.7,22L49.7,5.8L49.7,5.8z"/>
</svg>
