<?xml version="1.0" encoding="utf-8"?>
<!-- Generator: Adobe Illustrator 24.0.1, SVG Export Plug-In . SVG Version: 6.00 Build 0)  -->
<svg version="1.1" id="Слой_1" xmlns="http://www.w3.org/2000/svg" xmlns:xlink="http://www.w3.org/1999/xlink" x="0px" y="0px"
	 viewBox="0 0 512 512" style="enable-background:new 0 0 512 512;" xml:space="preserve">
<style type="text/css">
	.st0{fill:#4E4E4E;}
</style>
<title></title>
<g id="_1">
	<path class="st0" d="M372.8,450h-261c-8.3,0-15-6.7-15-15V150.6c0-8.3,6.7-15,15-15l0,0h261c8.3,0,15,6.7,15,15l0,0V435
		C387.8,443.3,381.1,450,372.8,450z M126.8,420h231V165.6h-231V420z"/>
	<path class="st0" d="M300.8,218c-8.3,0-15-6.7-15-15l0,0v-81.5c-0.5-24-20.4-43.1-44.4-42.6c-23.3,0.5-42.1,19.3-42.6,42.6V203
		c0,8.3-6.7,15-15,15s-15-6.7-15-15v-81.5c0.7-40.6,34.1-73,74.7-72.3c39.6,0.7,71.6,32.6,72.3,72.3V203
		C315.8,211.3,309.1,218,300.8,218L300.8,218z"/>
</g>
</svg>
