<svg version="1.1" id="Logo" xmlns="http://www.w3.org/2000/svg" xmlns:xlink="http://www.w3.org/1999/xlink" x="0px" y="0px" viewBox="0 0 1624 545" style="" xml:space="preserve">
<style type="text/css">
	.st0{fill:none;stroke:#4E4E4E;stroke-width:8;stroke-miterlimit:10;}
	.st1{fill:#4E4E4E;}
</style>
<style>
#wordBe{
	animation: word1 0.5s linear;
}
@keyframes word1{
	0%{opacity:0; transform: translate(-45px)}
	100%{opacity:1; transform: translate:(0px)}
}
#wordSmarter{
	animation: word2 0.5s linear;
}
@keyframes word2{
	0%{opacity:0; transform: translate(45px)}
	100%{opacity:1; transform: translate:(0px)}
}
</style>
<g id="books">
	<g>
		<path class="st0 seGQNcqU_0" d="M1453.3,240.8c-1.5-0.4-2.6-1.7-2.7-3.3c-1-10.3-0.5-25.6,8.2-31.1c0.2-0.1,0.3-0.3,0.4-0.4
			c6.9-2.2,12-5.3,9.9-9.2c-0.4-0.9-1.3-1.5-2.2-1.7l-112.1-33.8c-0.5-0.2-1.1-0.2-1.6-0.1l-183.9,25.6c0,0-21.2,3-19.3,35.9
			c0.8,13.4,4.1,21.7,7.8,26.9c1.5,2.1,0.6,5.1-1.9,5.9l-8.3,2.5c-0.9,0.3-1.7,0.9-2.2,1.7c-2.1,4,2.9,7,9.9,9.2
			c0.2,0.1,0.3,0.3,0.4,0.4c8.7,5.4,9.2,20.7,8.2,31c-0.2,1.5-1.2,2.8-2.7,3.3c-31,9.1-19.4,12.1-19.4,12.1l1.4,0.4
			c2.6,0.6,3.7,3.6,2.2,5.9c-3.6,5.3-6.4,13.6-5.6,26.3c1.8,30.8,17.2,34.7,19.1,35.1c0.2,0,0.3,0.1,0.4,0.1l119.7,38.9
			c0.7,0.2,1.4,0.2,2.1,0.1l181.4-44c0,0,11.6-3-19.4-12.1c-1.5-0.4-2.6-1.7-2.7-3.3c-1-10.3-0.5-25.6,8.2-31
			c0.2-0.1,0.3-0.3,0.4-0.4c7-2.2,12-5.3,9.9-9.2c-0.4-0.9-1.3-1.5-2.2-1.7h-0.1c-2.7-0.8-3.5-4.1-1.7-6.2c4.3-4.9,8.6-13.5,9.5-29
			c0.7-11.4-1.5-19.2-4.5-24.5c-1.3-2.2-0.1-5,2.4-5.6l10.3-2.5C1472.7,252.9,1484.3,249.9,1453.3,240.8z M1298.2,242.7
			c0.1-1.8,1.3-3.2,3-3.6l27.8-5.7l103.7-21.3l8.6-1.8c2.8-0.6,5.2,2,4.4,4.7c-2.3,7.9-2.1,16.9-1.4,23.2c0.1,0.5,0.1,1,0.2,1.4
			c0.2,1.9-1,3.6-2.8,4.1l-13.6,3.4l-126,31.3c-2.4,0.6-4.8-1.3-4.7-3.8L1298.2,242.7z M1168.9,277.8c-0.8-2.7,1.6-5.3,4.4-4.7
			l8.5,1.8l99.6,20.5l8.7,1.8l0,0l0,0l23.2,4.8c1.7,0.4,3,1.8,3,3.6l1,32c0.1,2.5-2.3,4.4-4.7,3.8L1183,309l-10-2.5
			c-1.8-0.5-3.1-2.2-2.8-4.1c0.1-0.5,0.1-0.9,0.2-1.4C1171,294.8,1171.3,285.8,1168.9,277.8z M1160.4,221.1
			c-0.2-8.7,1.4-15.1,4.5-18.3c2-2.1,4.4-2.5,6-2.5c0.4,0,0.8,0,1.1,0.1c0.3,0,0.5,0.1,0.8,0.2l79.3,25.9l37,12.1
			c1.6,0.5,2.7,2,2.6,3.7l-1.1,32.6c-0.1,2.5-2.4,4.2-4.8,3.5L1179,248.5l-5.9-1.6c-0.2-0.1-0.5-0.1-0.7-0.1
			C1172,246.6,1161,245.6,1160.4,221.1z M1280.5,400.4c-0.1,2.5-2.4,4.2-4.8,3.5L1163,372.3c-0.2-0.1-0.5-0.1-0.7-0.1
			c-0.5,0-11.5-1-12-25.5c-0.2-8.8,1.4-15.1,4.5-18.3c2-2,4.4-2.5,6-2.5c0.9,0,1.5,0.1,1.5,0.1l0,0l116.6,38c1.6,0.5,2.7,2,2.6,3.7
			L1280.5,400.4z M1434,363.8c0.1,0.5,0.1,1,0.2,1.4c0.2,1.9-1,3.6-2.8,4.1L1291.7,404c-2.4,0.6-4.8-1.3-4.7-3.8l1-32
			c0.1-1.8,1.3-3.2,3-3.6l27.8-5.7c0.6-0.1,1.1-0.1,1.7,0l2.8,0.7c0.7,0.2,1.4,0.1,2.1-0.1l16.3-5.3c0.1,0,0.3-0.1,0.4-0.1
			l80.4-16.5l8.6-1.8c2.8-0.6,5.2,2,4.4,4.7C1433.1,348.5,1433.4,357.5,1434,363.8z M1442.2,309.4c-0.3,0-0.5,0-0.8,0.1l-11.2,3.1
			l-101.5,28.5c-2.4,0.7-4.7-1.1-4.8-3.5l-1.1-32.6c-0.1-1.7,1-3.2,2.6-3.7l32.1-10.5l84.1-27.4c0.2-0.1,0.4-0.1,0.7-0.1
			c1.2-0.1,4.6-0.3,7.3,2.4c3.1,3.2,4.7,9.5,4.5,18.3C1453.6,308.4,1442.6,309.4,1442.2,309.4z"></path>
	</g>
</g>
<g id="words">
	<g id="wordBe">
		<path class="st1 seGQNcqU_1" d="M79.4,204.4c9.1-1.9,23.5-3.4,38.2-3.4c20.9,0,34.3,3.6,44.4,11.8c8.4,6.2,13.4,15.8,13.4,28.6
			c0,15.6-10.3,29.3-27.4,35.5v0.5c15.4,3.8,33.4,16.6,33.4,40.6c0,13.9-5.5,24.5-13.7,32.4c-11.3,10.3-29.5,15.1-55.9,15.1
			c-14.4,0-25.4-1-32.4-1.9L79.4,204.4L79.4,204.4z M100.2,270.7h19c22.1,0,35-11.5,35-27.1c0-19-14.4-26.4-35.5-26.4
			c-9.6,0-15.1,0.7-18.5,1.4V270.7z M100.2,348.2c4.1,0.7,10.1,1,17.5,1c21.6,0,41.5-7.9,41.5-31.4c0-22.1-19-31.2-41.8-31.2h-17.3
			C100.2,286.5,100.2,348.2,100.2,348.2z"></path>
		<path class="st1 seGQNcqU_2" d="M221.4,309.8c0.5,28.6,18.7,40.3,39.8,40.3c15.1,0,24.2-2.6,32.2-6l3.6,15.1c-7.4,3.4-20.2,7.2-38.6,7.2
			c-35.8,0-57.1-23.5-57.1-58.6s20.6-62.6,54.5-62.6c37.9,0,48,33.4,48,54.7c0,4.3-0.5,7.7-0.7,9.8h-81.7V309.8z M283.4,294.7
			c0.2-13.4-5.5-34.3-29.3-34.3c-21.4,0-30.7,19.7-32.4,34.3H283.4z"></path>
	</g>
	<g id="wordSmarter">
		<path class="st1 seGQNcqU_3" d="M327.8,338.6c9.4,5.8,23,10.6,37.4,10.6c21.4,0,33.8-11.3,33.8-27.6c0-15.1-8.6-23.8-30.5-32.2
			c-26.4-9.4-42.7-23-42.7-45.8c0-25.2,20.9-43.9,52.3-43.9c16.6,0,28.6,3.8,35.8,7.9l-5.8,17c-5.3-2.9-16.1-7.7-30.7-7.7
			c-22.1,0-30.5,13.2-30.5,24.2c0,15.1,9.8,22.6,32.2,31.2c27.4,10.6,41.3,23.8,41.3,47.5c0,25-18.5,46.6-56.6,46.6
			c-15.6,0-32.6-4.6-41.3-10.3L327.8,338.6z"></path>
		<path class="st1 seGQNcqU_4" d="M448.2,279.3c0-12-0.2-21.8-1-31.4h18.5l1,18.7h0.7c6.5-11,17.3-21.4,36.5-21.4c15.8,0,27.8,9.6,32.9,23.3
			h0.5c3.6-6.5,8.2-11.5,13-15.1c7-5.3,14.6-8.2,25.7-8.2c15.4,0,38.2,10.1,38.2,50.4V364h-20.6v-65.8c0-22.3-8.2-35.8-25.2-35.8
			c-12,0-21.4,8.9-25,19.2c-1,2.9-1.7,6.7-1.7,10.6V364h-20.6v-69.6c0-18.5-8.2-31.9-24.2-31.9c-13.2,0-22.8,10.6-26.2,21.1
			c-1.2,3.1-1.7,6.7-1.7,10.3V364h-20.6L448.2,279.3L448.2,279.3z"></path>
		<path class="st1 seGQNcqU_5" d="M712.7,364l-1.7-14.6h-0.7c-6.5,9.1-19,17.3-35.5,17.3c-23.5,0-35.5-16.6-35.5-33.4c0-28.1,25-43.4,69.8-43.2
			v-2.4c0-9.6-2.6-26.9-26.4-26.9c-10.8,0-22.1,3.4-30.2,8.6l-4.8-13.9c9.6-6.2,23.5-10.3,38.2-10.3c35.5,0,44.2,24.2,44.2,47.5
			v43.4c0,10.1,0.5,19.9,1.9,27.8h-19.3V364z M709.6,304.8c-23-0.5-49.2,3.6-49.2,26.2c0,13.7,9.1,20.2,19.9,20.2
			c15.1,0,24.7-9.6,28.1-19.4c0.7-2.2,1.2-4.6,1.2-6.7V304.8z"></path>
		<path class="st1 seGQNcqU_6" d="M764.1,284.1c0-13.7-0.2-25.4-1-36.2h18.5l0.7,22.8h1c5.3-15.6,18-25.4,32.2-25.4c2.4,0,4.1,0.2,6,0.7v19.9
			c-2.2-0.5-4.3-0.7-7.2-0.7c-14.9,0-25.4,11.3-28.3,27.1c-0.5,2.9-1,6.2-1,9.8V364h-20.9V284.1L764.1,284.1z"></path>
		<path class="st1 seGQNcqU_7" d="M873.7,214.5v33.4H904V264h-30.2v62.6c0,14.4,4.1,22.6,15.8,22.6c5.5,0,9.6-0.7,12.2-1.4l1,15.8
			c-4.1,1.7-10.6,2.9-18.7,2.9c-9.8,0-17.8-3.1-22.8-8.9c-6-6.2-8.2-16.6-8.2-30.2V264h-18v-16.1h18V220L873.7,214.5z"></path>
		<path class="st1 seGQNcqU_8" d="M938.1,309.8c0.5,28.6,18.7,40.3,39.8,40.3c15.1,0,24.2-2.6,32.2-6l3.6,15.1c-7.4,3.4-20.2,7.2-38.6,7.2
			c-35.8,0-57.1-23.5-57.1-58.6s20.6-62.6,54.5-62.6c37.9,0,48,33.4,48,54.7c0,4.3-0.5,7.7-0.7,9.8h-81.7V309.8z M1000,294.7
			c0.2-13.4-5.5-34.3-29.3-34.3c-21.4,0-30.7,19.7-32.4,34.3H1000z"></path>
		<path class="st1 seGQNcqU_9" d="M1046.5,284.1c0-13.7-0.2-25.4-1-36.2h18.5l0.7,22.8h1c5.3-15.6,18-25.4,32.2-25.4c2.4,0,4.1,0.2,6,0.7v19.9
			c-2.2-0.5-4.3-0.7-7.2-0.7c-14.9,0-25.4,11.3-28.3,27.1c-0.5,2.9-1,6.2-1,9.8V364h-20.9L1046.5,284.1L1046.5,284.1z"></path>
	</g>
</g>
<style data-made-with="vivus-instant">.seGQNcqU_0{stroke-dasharray:3257 3259;stroke-dashoffset:3258;animation:seGQNcqU_draw 3000ms linear 500ms forwards;}.seGQNcqU_1{stroke-dasharray:915 917;stroke-dashoffset:916;animation:seGQNcqU_draw 4000ms linear 0ms forwards;}.seGQNcqU_2{stroke-dasharray:676 678;stroke-dashoffset:677;animation:seGQNcqU_draw 4000ms linear 0ms forwards;}.seGQNcqU_3{stroke-dasharray:671 673;stroke-dashoffset:672;animation:seGQNcqU_draw 4000ms linear 0ms forwards;}.seGQNcqU_4{stroke-dasharray:954 956;stroke-dashoffset:955;animation:seGQNcqU_draw 4000ms linear 0ms forwards;}.seGQNcqU_5{stroke-dasharray:659 661;stroke-dashoffset:660;animation:seGQNcqU_draw 4000ms linear 0ms forwards;}.seGQNcqU_6{stroke-dasharray:371 373;stroke-dashoffset:372;animation:seGQNcqU_draw 4000ms linear 0ms forwards;}.seGQNcqU_7{stroke-dasharray:474 476;stroke-dashoffset:475;animation:seGQNcqU_draw 4000ms linear 0ms forwards;}.seGQNcqU_8{stroke-dasharray:676 678;stroke-dashoffset:677;animation:seGQNcqU_draw 4000ms linear 0ms forwards;}.seGQNcqU_9{stroke-dasharray:371 373;stroke-dashoffset:372;animation:seGQNcqU_draw 4000ms linear 0ms forwards;}@keyframes seGQNcqU_draw{100%{stroke-dashoffset:0;}}@keyframes seGQNcqU_fade{0%{stroke-opacity:1;}95.1219512195122%{stroke-opacity:1;}100%{stroke-opacity:0;}}</style></svg>
