<svg version="1.1" id="RepairMan" xmlns="http://www.w3.org/2000/svg" xmlns:xlink="http://www.w3.org/1999/xlink" x="0px" y="0px"
	 viewBox="0 0 429.2 464.4" style="enable-background:new 0 0 429.2 464.4;" xml:space="preserve">
<style type="text/css">
	.st0{fill:#4E4E4E;}
</style>
<style>
#headRepair{
  animation: headRepair 0.75s linear infinite alternate
}
@keyframes headRepair{
	0%{transform: translateY(0px)}
	100%{transform: translateY(-8px)}
}

#keyRepair{
  animation: keyRepair 0.75s linear infinite alternate;
  transform-origin: center center;
  transform-box: fill-box;
}
@keyframes keyRepair{
	0%{transform: rotate(0deg)}
	100%{transform: rotate(6deg)}
}
</style>
<path class="st0" d="M237.1,414.3c0,5-4,9-9,9h-65c-5,0-9.2-3.6-9.2-8.5v-86.1c0-5,4.3-9.4,9.2-9.4h99.6c5,0,9,4,9,9s-4,9-9,9h-90.8
	v68h56.2C233,405.3,237.1,409.4,237.1,414.3z"/>
<path class="st0" d="M150.1,260.8c7,11.1,21.1,18.3,36.7,18.3c15.6,0,29.7-7.3,36.7-18.3c12.3,1,24.5,6,33.3,13.9
	c3.7,3.3,9.4,3,12.7-0.7c3.3-3.7,3-9.5-0.7-12.9c-13-11.7-31.5-18.9-49.6-18.9H218c-3.8,0-7.3,2.6-8.5,6.2
	c-2.1,6.2-10.6,12.5-22.7,12.5c-12.1,0-20.5-6.4-22.7-12.5c-1.2-3.6-4.7-6.2-8.5-6.2h-1.2c-30.6,0-59.2,19.2-65.1,43.5L62.8,394.7
	c-0.1,0.4-0.2,0.9-0.3,1.4c-0.1,1.1,0,2.2,0.2,3.3c0.2,0.9,0.6,1.8,1.1,2.6c1.1,1.6,2.8,2.9,4.7,3.6c0.3,0.1,0.2,0.5,1.2,0.5v0.2
	c0,0-0.3,0-0.3,0c0.6,0,1.3,0.1,1.9,0.1c0.1,0,0.2-0.1,0.3-0.1h54c5,0,9-4,9-9s-4-9-9-9H83l23.8-97.9
	C110.4,275.4,129.7,262.4,150.1,260.8z"/>
<path class="st0" d="M212.2,288.3c-5,0-9,4-9,9c0,5,4,9,9,9H244c5,0,9-4,9-9s-4-9-9-9H212.2z"/>
<path id="headRepair" class="st0" d="M97.1,140.3c-0.4-5,3.3-9.3,8.2-9.7c1.5-0.1,3,0.1,4.3,0.7c1.4-6.4,3.6-12.5,6.6-18.3
	c-0.3-0.3-0.7-0.6-1-0.9c-0.3-0.4-0.6-0.8-0.9-1.2c-0.8-1.3-1.5-2.8-1.5-4.4c0,0,0,0,0,0s0,0,0,0c0-0.2,0-0.4,0-0.7c0,0,0,0,0,0
	c0,0,0,0,0,0c0-0.3,0.1-0.5,0.1-0.8c4-37.2,35.3-65.1,72.8-65.1c34.8,0,64.2,23.5,71.5,57.5h24.1c5,0,9,4,9,9c0,5-4,9-9,9h-25.1
	c2.5,5,4.4,10.5,5.6,16.1c1.3-0.6,2.8-1,4.3-0.9c5,0.4,8.6,4.8,8.2,9.7l-1.2,13.9c-0.4,5-4.8,8.6-9.7,8.2c-0.3,0-0.6-0.1-1-0.1
	c-6.5,36.5-38.5,64.3-76.9,64.3c-38.3,0-70.3-27.8-76.9-64.3c-0.3,0.1-0.6,0.1-1,0.1c-4.9,0.4-9.3-3.3-9.7-8.2L97.1,140.3z
	 M125.7,148.7c0,33.1,27,60,60.1,60c33.1,0,60.1-26.9,60.1-60c0-12.1-3.5-23.3-10.2-33.3h-99.8C129.2,125.3,125.7,136.6,125.7,148.7
	z M158.9,155.3h10c5,0,9-4,9-9c0-5-4-9-9-9h-10c-5,0-9,4-9,9C149.9,151.3,153.9,155.3,158.9,155.3z M203.2,155.3h10c5,0,9-4,9-9
	c0-5-4-9-9-9h-10c-5,0-9,4-9,9C194.2,151.3,198.2,155.3,203.2,155.3z M174.3,182.3c0,5,4,9,9,9h5c5,0,9-4,9-9s-4-9-9-9h-5
	C178.3,173.3,174.3,177.4,174.3,182.3z M132.9,97.3h105.8c-6.8-23-28.1-39.3-52.9-39.3C160.9,58,139.7,74.3,132.9,97.3z"/>
<path id="keyRepair" class="st0" d="M366.6,296.4c-0.1-1.2-0.5-2.5-1.1-3.6c-0.2-0.3-0.4-0.6-0.6-0.9l-8.9-12.7
	c-2.9-4.1-8.5-5.1-12.5-2.2c-4.1,2.9-5.1,8.5-2.2,12.5l6,8.6l-5.5,11.8c0,0,0,0,0,0l-5.5,12l-13,1.3c0,0,0,0,0,0l-13,0.9l-7.5-10.8
	c0,0,0-0.1,0-0.1l-7.5-10.7l11-23.7l10.5-0.9c5-0.4,8.6-4.8,8.2-9.8c-0.4-5-4.8-8.6-9.8-8.2l-15.5,1.4c-0.4,0-0.7,0.1-1.1,0.1
	c-1.3,0.2-2.5,0.8-3.5,1.5c-1,0.7-1.9,1.6-2.6,2.8c-0.2,0.3-0.3,0.6-0.5,0.9l-15.3,32.8c-0.2,0.3-0.3,0.7-0.4,1
	c-0.4,1.2-0.6,2.5-0.5,3.7c0.1,1.2,0.5,2.5,1.1,3.6c0.2,0.3,0.4,0.6,0.6,0.9l10.4,14.8c0,0,0,0,0,0l7.5,10.7l-36.1,77.4
	c-2.1,4.5-0.2,9.9,4.4,12c1.2,0.6,2.5,0.8,3.8,0.8c3.4,0,6.6-1.9,8.2-5.2l36.1-77.1l13-0.9c0,0,0,0,0,0l18-1.8
	c0.4,0,0.7-0.2,1.1-0.3c1.3-0.2,2.5-0.8,3.5-1.5c1-0.7,1.9-1.7,2.6-2.8c0.2-0.3,0.4-0.6,0.5-1l7.6-16.4c0,0,0,0,0,0l7.6-16.4
	c0.2-0.3,0.3-0.7,0.4-1C366.6,298.9,366.8,297.7,366.6,296.4z"/>
</svg>
